<?xml version="1.0" encoding="UTF-8" standalone="no"?>
<svg
   xmlns:dc="http://purl.org/dc/elements/1.1/"
   xmlns:cc="http://creativecommons.org/ns#"
   xmlns:rdf="http://www.w3.org/1999/02/22-rdf-syntax-ns#"
   xmlns:svg="http://www.w3.org/2000/svg"
   xmlns="http://www.w3.org/2000/svg"
   id="svg8"
   version="1.1"
   viewBox="0 0 394.8963 131.23334"
   height="131.23334mm"
   width="394.8963mm">
  <defs
     id="defs2" />
  <metadata
     id="metadata5">
    <rdf:RDF>
      <cc:Work
         rdf:about="">
        <dc:format>image/svg+xml</dc:format>
        <dc:type
           rdf:resource="http://purl.org/dc/dcmitype/StillImage" />
        <dc:title></dc:title>
      </cc:Work>
    </rdf:RDF>
  </metadata>
  <g
     transform="translate(37.495244,-170.15119)"
     id="layer1">
    <path
       style="fill:#ffffff;stroke-width:0.26458332"
       d="m 85.271426,184.96786 h -110.06667 c -7.0141,0 -12.7,5.68589 -12.7,12.69999 v 76.2 c 0,7.01411 5.6859,12.7 12.7,12.7 h 110.06667 c 7.0141,0 12.7,-5.68589 12.7,-12.7 v -76.2 c 0,-7.0141 -5.6859,-12.69999 -12.7,-12.69999 z m -1.5875,88.89999 h -106.89167 a 1.5875,1.5875 0 0 1 -1.5875,-1.5875 v -73.025 a 1.5875,1.5875 0 0 1 1.5875,-1.5875 h 106.89167 a 1.5875,1.5875 0 0 1 1.5875,1.5875 v 73.025 a 1.5875,1.5875 0 0 1 -1.5875,1.5875 z M -3.6285738,208.25119 c -5.84491,0 -10.5833302,4.73842 -10.5833302,10.58333 0,5.84491 4.7384202,10.58333 10.5833302,10.58333 5.84491,0 10.58333,-4.73842 10.58333,-10.58333 0,-5.84491 -4.73842,-10.58333 -10.58333,-10.58333 z m -8.4666702,52.91666 h 84.66667 v -21.16666 l -23.15501,-23.15501 c -1.23984,-1.23984 -3.25014,-1.23984 -4.49024,0 L 13.304756,248.46785 2.8497462,238.01284 c -1.23983,-1.23984 -3.25014001,-1.23984 -4.49024,0 l -10.4547502,10.45501 z"
       id="path815" />
    <path
       style="fill:#ffffff;stroke-width:0.26458332"
       d="m 315.22647,210.36786 c -3.83646,-23.62729 -12.88521,-40.21667 -23.41562,-40.21667 -10.53042,0 -19.57917,16.58938 -23.41563,40.21667 z m -48.81562,25.39999 c 0,5.87375 0.3175,11.50938 0.87312,16.93334 h 49.02729 c 0.55563,-5.42396 0.87313,-11.05959 0.87313,-16.93334 0,-5.87375 -0.3175,-11.50937 -0.87313,-16.93333 h -49.02729 c -0.55562,5.42396 -0.87312,11.05958 -0.87312,16.93333 z m 85.9102,-25.39999 c -7.56708,-17.96521 -22.88645,-31.85584 -41.80416,-37.465 6.45583,8.94291 10.90083,22.41021 13.22917,37.465 z m -79.2427,-37.465 c -18.89125,5.60916 -34.23709,19.49979 -41.77771,37.465 h 28.575 c 2.30187,-15.05479 6.74687,-28.52209 13.20271,-37.465 z m 82.07375,45.93166 h -30.34771 c 0.55562,5.55625 0.87312,11.24479 0.87312,16.93333 0,5.68855 -0.3175,11.37709 -0.87312,16.93334 h 30.32125 c 1.45521,-5.42396 2.27541,-11.05959 2.27541,-16.93334 0,-5.87375 -0.8202,-11.50937 -2.24895,-16.93333 z m -97.20792,16.93333 c 0,-5.68854 0.3175,-11.37708 0.87313,-16.93333 H 228.4696 c -1.42875,5.42396 -2.27542,11.05958 -2.27542,16.93333 0,5.87375 0.84667,11.50938 2.27542,16.93334 h 30.32125 c -0.52917,-5.55625 -0.84667,-11.24479 -0.84667,-16.93334 z m 10.45104,25.4 c 3.83646,23.62729 12.88521,40.21667 23.41563,40.21667 10.53041,0 19.57916,-16.58938 23.41562,-40.21667 z m 42.14813,37.465 c 18.89125,-5.60916 34.23708,-19.49979 41.80416,-37.465 h -28.575 c -2.32833,15.05479 -6.77333,28.52209 -13.22916,37.465 z m -79.24271,-37.465 c 7.56708,17.96521 22.88646,31.85584 41.80417,37.465 -6.45584,-8.94291 -10.90084,-22.41021 -13.22917,-37.465 z"
       id="path826" />
    <path
       style="fill:#ffffff;stroke-width:0.15996505"
       d="m 200.63977,225.18386 -28.15449,-24.31229 c -2.46443,-2.12833 -6.34853,-0.40055 -6.34853,2.90561 v 12.80568 c -25.69503,0.29418 -46.06994,5.44393 -46.06994,29.79477 0,9.82841 6.33157,19.56517 13.33037,24.65574 2.184,1.5886 5.2966,-0.4052 4.49133,-2.98032 -7.25345,-23.197 3.44037,-29.35534 28.24824,-29.71222 v 14.06332 c 0,3.31128 3.88715,5.03138 6.34853,2.90561 l 28.15449,-24.31469 c 1.77098,-1.52959 1.77337,-4.27954 0,-5.81121 z"
       id="path848" />
  </g>
</svg>
